<?xml version="1.0" standalone="no"?>
<!DOCTYPE svg PUBLIC "-//W3C//DTD SVG 20010904//EN"
 "http://www.w3.org/TR/2001/REC-SVG-20010904/DTD/svg10.dtd">
<svg version="1.0" xmlns="http://www.w3.org/2000/svg"
 width="2048px" height="1536px" viewBox="0 0 2048.000000 1536.000000"
 preserveAspectRatio="xMidYMid meet">
<metadata>
Created by potrace 1.16, written by Peter Selinger 2001-2019
</metadata>
<g transform="translate(0.000000,1536.000000) scale(0.100000,-0.100000)"
fill="#000000" stroke="none">
<path d="M7900 8925 l0 -2325 510 0 509 0 3 1268 3 1267 27 96 c97 353 298
622 602 809 214 131 446 188 714 177 217 -9 389 -53 571 -147 53 -27 98 -46
102 -42 7 8 491 817 507 848 11 21 4 26 -136 97 -246 125 -482 203 -737 242
-141 22 -455 31 -596 16 -332 -34 -644 -137 -929 -305 l-125 -74 -3 199 -2
199 -510 0 -510 0 0 -2325z"/>
<path d="M11666 10652 c-22 -37 -142 -232 -268 -435 -125 -202 -228 -372 -228
-378 0 -6 21 -34 47 -63 97 -107 206 -302 256 -456 40 -122 57 -248 57 -416 0
-231 -33 -375 -135 -579 -315 -631 -1071 -896 -1722 -604 -136 61 -276 170
-401 313 l-52 60 0 -601 0 -602 28 -21 c50 -40 306 -159 397 -185 151 -43 323
-74 482 -87 441 -34 914 82 1318 326 l90 54 3 -351 c3 -383 -4 -461 -53 -632
-96 -329 -355 -640 -660 -793 -363 -181 -856 -182 -1215 -2 -360 181 -622 560
-677 978 l-17 132 -509 0 -510 0 7 -112 c22 -356 79 -591 210 -863 143 -296
314 -520 559 -731 446 -384 988 -564 1632 -541 378 14 670 80 950 216 723 349
1215 1059 1295 1869 14 145 14 2877 0 3008 -49 445 -225 871 -506 1224 -66 82
-318 340 -332 340 -4 0 -25 -31 -46 -68z"/>
</g>
</svg>
